HIERARCHY
ROOT Hips
{
	OFFSET -3.958830 18.904000 13.208200
	CHANNELS 6 Xposition Yposition Zposition Zrotation Yrotation Xrotation 
	JOINT LHipJoint
	{
		OFFSET 0.000000 0.000000 0.000000
		CHANNELS 3 Zrotation Yrotation Xrotation
		JOINT LeftUpLeg
		{
			OFFSET 1.800000 -1.400000 0.085000
			CHANNELS 3 Zrotation Yrotation Xrotation
			JOINT LeftLeg
			{
				OFFSET 2.215000 -6.000000 0.000000
				CHANNELS 3 Zrotation Yrotation Xrotation
				JOINT LeftFoot
				{
					OFFSET 2.500000 -6.900000 0.000000
					CHANNELS 3 Zrotation Yrotation Xrotation
					JOINT LeftToeBase
					{
						OFFSET 0.200000 -0.500000 1.950000
						CHANNELS 3 Zrotation Yrotation Xrotation
						End Site
						{
							OFFSET 0.000000 0.000000 0.000000
						}
					}
				}
			}
		}
	}
	JOINT RHipJoint
	{
		OFFSET 0.000000 0.000000 0.000000
		CHANNELS 3 Zrotation Yrotation Xrotation
		JOINT RightUpLeg
		{
			OFFSET -1.800000 -1.400000 0.085000
			CHANNELS 3 Zrotation Yrotation Xrotation
			JOINT RightLeg
			{
				OFFSET -2.215000 -6.000000 0.000000
				CHANNELS 3 Zrotation Yrotation Xrotation
				JOINT RightFoot
				{
					OFFSET -2.500000 -6.900000 0.000000
					CHANNELS 3 Zrotation Yrotation Xrotation
					JOINT RightToeBase
					{
						OFFSET -0.200000 -0.500000 1.950000
						CHANNELS 3 Zrotation Yrotation Xrotation
						End Site
						{
							OFFSET 0.000000 0.000000 0.000000
						}
					}
				}
			}
		}
	}
	JOINT LowerBack
	{
		OFFSET 0.000000 0.000000 0.000000
		CHANNELS 3 Zrotation Yrotation Xrotation
		JOINT Spine
		{
			OFFSET -0.087000 1.940000 -0.288900
			CHANNELS 3 Zrotation Yrotation Xrotation
			JOINT Spine1
			{
				OFFSET 0.000000 1.950000 0.060000
				CHANNELS 3 Zrotation Yrotation Xrotation
				JOINT Neck
				{
					OFFSET 0.000000 0.000000 0.000000
					CHANNELS 3 Zrotation Yrotation Xrotation
					JOINT Neck1
					{
						OFFSET 0.000000 1.600000 0.340000
						CHANNELS 3 Zrotation Yrotation Xrotation
						JOINT Head
						{
							OFFSET 0.000000 1.667000 -0.240000
							CHANNELS 3 Zrotation Yrotation Xrotation
							End Site
							{
								OFFSET 0.000000 0.000000 0.000000
							}
						}
					}
				}
				JOINT LeftShoulder
				{
					OFFSET 0.000000 0.000000 0.000000
					CHANNELS 3 Zrotation Yrotation Xrotation
					JOINT LeftArm
					{
						OFFSET 2.700000 1.550000 -0.730000
						CHANNELS 3 Zrotation Yrotation Xrotation
						JOINT LeftForeArm
						{
							OFFSET 5.450000 0.000000 0.000000
							CHANNELS 3 Zrotation Yrotation Xrotation
							JOINT LeftHand
							{
								OFFSET 3.450000 0.000000 0.000000
								CHANNELS 3 Zrotation Yrotation Xrotation
								JOINT LeftHandIndex1
								{
									OFFSET 0.750000 0.000000 0.000000
									CHANNELS 3 Zrotation Yrotation Xrotation
									End Site
									{
										OFFSET 0.000000 0.000000 0.000000
									}
								}
							}
						}
					}
				}
				JOINT RightShoulder
				{
					OFFSET 0.000000 0.000000 0.000000
					CHANNELS 3 Zrotation Yrotation Xrotation
					JOINT RightArm
					{
						OFFSET -2.700000 1.550000 -0.730000
						CHANNELS 3 Zrotation Yrotation Xrotation
						JOINT RightForeArm
						{
							OFFSET -5.450000 0.000000 0.000000
							CHANNELS 3 Zrotation Yrotation Xrotation
							JOINT RightHand
							{
								OFFSET -3.450000 0.000000 0.000000
								CHANNELS 3 Zrotation Yrotation Xrotation
								JOINT RightHandIndex1
								{
									OFFSET -0.750000 0.000000 0.000000
									CHANNELS 3 Zrotation Yrotation Xrotation
									End Site
									{
										OFFSET 0.000000 0.000000 0.000000
									}
								}
							}
						}
					}
				}
			}
		}
	}
}
MOTION
Frames: 13
Frame Time: 0.016667
1.256950 18.200200 -0.283150 -5.820630 -23.251316 -8.186833 -15.508794 11.893815 1.848407 3.865156 0.986100 -1.661036 -11.180560 7.346864 10.126758 -0.499009 4.918629 2.876587 -0.007720 -0.150530 -0.076500 18.699209 -6.084264 8.103554 1.837717 36.651783 -63.006938 3.665894 -18.224151 93.592076 -3.013388 -14.851830 -0.074868 -0.009810 0.218550 -0.103770 -4.019226 -3.723254 -9.705820 18.564183 -3.452903 42.617021 -3.044894 3.819070 1.182886 1.102089 -9.403978 -12.854951 -25.401484 10.947882 45.313559 -6.002530 4.651590 -14.941090 -26.197629 -17.380523 1.723221 -14.408208 -1.998301 -12.795967 44.383335 -86.341765 -42.612346 -3.428403 1.975024 0.743780 -0.036640 -0.036930 -0.027470 24.176283 25.437606 10.928711 38.075002 8.463080 -5.075812 1.130109 17.241927 -0.140442 2.019257 -0.781715 -0.452710 0.551540 0.415340 -0.268050 
1.281240 18.228930 -0.307240 -5.819606 -23.894436 -8.349200 -15.538694 11.919440 1.909675 3.785485 1.125561 -0.883177 -11.188008 7.075032 8.622330 -0.477806 4.885494 2.897083 -0.015900 -0.159390 -0.094860 18.665212 -6.049384 8.038934 0.167431 36.795369 -64.103328 5.516820 -20.153439 93.781564 -3.104299 -15.210943 -0.150226 -0.020430 0.217940 -0.106730 -3.943425 -3.865716 -9.719950 18.479914 -3.372965 43.719892 -2.664555 3.913112 0.998663 1.095650 -9.610796 -13.300981 -26.165202 11.183866 44.926678 -5.850190 4.462110 -14.829820 -25.398990 -17.673745 1.938321 -11.968138 -1.875858 -11.860538 31.911107 -84.925584 -30.702603 -3.459322 2.365298 0.746620 -0.043950 -0.038620 -0.023270 23.610918 26.003246 11.257140 37.136489 8.410043 -5.046515 1.398520 17.497983 -0.063381 2.017396 -0.779394 -0.450040 0.546380 0.418770 -0.262130 
1.297790 18.246610 -0.331530 -5.674476 -24.373992 -8.504864 -15.575205 11.958637 1.958048 3.618386 1.246822 -0.383020 -11.145089 6.877315 7.552843 -0.440985 4.867873 2.925369 -0.022560 -0.167250 -0.103250 18.626074 -6.001252 7.987629 -1.385154 36.894526 -65.271505 7.046077 -21.783305 94.127694 -3.193522 -15.557835 -0.216645 -0.032830 0.231470 -0.103180 -3.840364 -4.049947 -9.741939 18.031867 -3.083098 44.726351 -2.027102 4.048576 0.602755 0.994142 -9.721037 -13.440339 -26.494674 11.039315 44.325321 -5.889590 4.206550 -14.446300 -24.952397 -17.648728 1.900042 -9.298738 -2.314984 -10.650044 17.055153 -82.786433 -16.773227 -3.505723 2.640729 0.735680 -0.039340 -0.039020 -0.008840 23.539931 26.135558 11.452113 35.893585 8.098438 -5.084389 2.043597 17.955030 0.042919 2.019912 -0.783214 -0.444080 0.547700 0.409220 -0.247360 
1.310340 18.253530 -0.357890 -5.308678 -24.842346 -8.674352 -15.609670 11.971609 1.998102 3.281231 1.373273 -0.043031 -11.194473 6.713944 6.605209 -0.415630 4.842222 2.946398 -0.030290 -0.165660 -0.132410 18.594872 -5.943402 7.953320 -3.281923 37.147524 -67.068696 8.485921 -23.490993 94.924323 -3.291388 -15.997550 -0.305350 -0.031520 0.249010 -0.115520 -3.760336 -4.200123 -9.755409 17.327785 -2.695925 45.515737 -1.245532 4.082403 0.260147 0.666948 -10.078387 -13.520664 -27.293684 11.255446 43.143699 -5.274390 3.890800 -13.867830 -24.485783 -17.536259 1.781267 -7.102042 -2.551899 -9.823787 8.513614 -80.733135 -8.813743 -3.528011 2.767712 0.712880 -0.034470 -0.058610 0.003350 23.895055 26.222847 11.597971 34.519062 7.972172 -4.999408 2.534456 18.003702 0.112358 2.022479 -0.797564 -0.443280 0.548800 0.408190 -0.230450 
1.326620 18.261660 -0.374640 -4.968700 -25.271971 -9.152492 -15.639242 11.995054 2.038279 2.849972 1.552503 0.643774 -10.945185 6.528146 5.741166 -0.393476 4.828925 2.963471 -0.029360 -0.163910 -0.144320 18.569286 -5.896618 7.916609 -4.455961 37.151713 -67.842066 9.175493 -24.453226 95.561901 -3.355841 -16.258435 -0.357540 -0.030640 0.258740 -0.123100 -3.694147 -4.338259 -9.758165 16.798148 -2.542813 46.479894 -0.752629 3.954778 0.017796 0.475865 -10.419514 -13.715961 -28.233976 11.648239 42.428740 -4.636170 3.584710 -13.738290 -24.219227 -17.630959 1.772944 -5.608657 -2.230487 -9.526579 5.757491 -79.216892 -6.098553 -3.524460 2.808582 0.708440 -0.039840 -0.064860 0.013690 24.170615 26.491072 11.785040 33.366684 7.906608 -4.945442 3.173995 17.994192 0.205243 2.025326 -0.800022 -0.444030 0.555170 0.404390 -0.219520 
1.342590 18.258260 -0.384150 -4.735882 -25.644514 -9.326377 -15.656831 11.989381 2.058178 2.508449 1.619619 0.911787 -10.773936 6.384586 5.209329 -0.375691 4.786411 2.976814 -0.006170 -0.134920 -0.133210 18.559689 -5.860782 7.912097 -4.882870 37.069934 -68.266498 8.874918 -24.431827 96.173470 -3.377723 -16.316015 -0.374020 -0.021060 0.245440 -0.119660 -3.670303 -4.399342 -9.760803 16.445247 -2.492717 46.733578 -0.377452 3.741938 0.170570 0.332437 -10.652622 -13.834577 -28.853357 11.879639 42.007662 -4.206610 3.355960 -14.239360 -23.610456 -17.619906 1.913870 -5.493651 -1.851306 -9.580239 5.789473 -78.485399 -6.014146 -3.499493 2.823188 0.705160 -0.054650 -0.051770 0.020990 23.919322 26.636660 11.764978 33.082940 8.177973 -4.869164 3.777273 18.050846 0.269287 2.036451 -0.806119 -0.425780 0.548770 0.387550 -0.210350 
1.354090 18.258580 -0.391040 -4.385342 -26.108913 -9.660801 -15.689131 12.002628 2.082703 2.054181 1.707031 1.248924 -10.493336 6.237333 4.719548 -0.360599 4.747525 2.988713 0.011470 -0.113220 -0.121000 18.540258 -5.795845 7.921171 -4.429068 36.927321 -67.675529 7.769105 -23.440181 96.560198 -3.347766 -16.146434 -0.338368 -0.017790 0.230730 -0.114300 -3.605061 -4.530814 -9.779292 15.836855 -2.246596 47.068327 0.118372 3.650635 0.327956 0.319958 -10.792875 -14.027522 -29.399419 12.099003 42.044050 -4.243550 3.287980 -14.820950 -23.302789 -17.697815 2.102613 -5.921102 -1.403014 -9.811518 6.607578 -78.237457 -6.734398 -3.472704 2.819689 0.710720 -0.069350 -0.032530 0.027320 23.732560 26.920951 11.823640 32.903325 8.282770 -4.871954 4.518599 18.115071 0.357817 2.042076 -0.802571 -0.410730 0.546910 0.374520 -0.204660 
1.358410 18.253030 -0.391040 -3.929982 -26.401090 -9.798041 -15.702257 11.958695 2.113318 1.699833 1.714471 1.333583 -10.788400 6.168869 4.209121 -0.361036 4.739176 2.991220 0.027450 -0.096350 -0.098340 18.541106 -5.762569 7.942494 -3.469344 36.629149 -66.820769 5.910817 -21.628216 96.899613 -3.275039 -15.825499 -0.274369 -0.007540 0.216070 -0.116400 -3.601841 -4.519844 -9.805951 15.325338 -2.064875 46.722515 0.175782 3.516734 0.580581 0.285668 -10.689933 -13.991990 -29.239424 12.095267 42.485805 -4.462950 3.409550 -15.364030 -23.043105 -17.705014 2.176875 -6.414931 -1.303751 -10.010572 7.180441 -77.901398 -7.214824 -3.455811 2.797488 0.723250 -0.080450 -0.016060 0.029230 23.506600 26.896710 11.733527 33.644144 8.380289 -4.905364 5.157875 18.236866 0.395945 2.043736 -0.796867 -0.411640 0.554410 0.362040 -0.210630 
1.364990 18.234070 -0.379590 -3.993897 -26.597751 -9.267598 -15.678202 11.892392 2.079255 1.659206 1.589193 0.928459 -10.704609 6.151531 4.491371 -0.394834 4.694840 3.005186 0.032660 -0.090150 -0.088570 18.574448 -5.781965 8.006165 -2.772671 36.604652 -67.045963 4.234219 -20.204914 97.524237 -3.226286 -15.650301 -0.237742 0.002320 0.214810 -0.121870 -3.707410 -4.355395 -9.799479 15.812525 -2.415603 45.553645 -0.275976 3.325624 0.756155 0.246846 -10.614481 -13.755454 -29.081322 12.122693 42.678288 -4.802740 3.594270 -15.499040 -22.720519 -17.359409 2.167486 -7.303832 -1.747244 -9.919686 6.490244 -77.259921 -6.662521 -3.462870 2.775938 0.728580 -0.077670 -0.015990 0.028110 23.114711 26.365845 11.425255 35.140586 8.420880 -4.953358 5.672941 18.436435 0.393976 2.040552 -0.793609 -0.421020 0.564310 0.360310 -0.218110 
1.370270 18.217520 -0.370020 -4.033340 -26.538936 -8.722193 -15.649144 11.839535 2.045328 1.598695 1.420118 0.288117 -10.719844 6.186004 5.017045 -0.425391 4.659074 3.016728 0.020280 -0.104570 -0.095240 18.607121 -5.818939 8.055572 -2.038104 36.347756 -67.292503 2.645486 -18.741613 97.872101 -3.158914 -15.461536 -0.200371 0.002210 0.228490 -0.124430 -3.806129 -4.204363 -9.788951 16.346013 -2.787250 44.234840 -0.656037 3.146001 0.941414 0.191103 -10.435768 -13.660766 -28.798644 12.272506 43.144392 -4.938620 3.875690 -14.625310 -22.600893 -17.304156 2.213733 -8.206986 -2.407784 -9.753180 4.002568 -76.056105 -4.718631 -3.487480 2.779790 0.720770 -0.061160 -0.030020 0.024340 23.012011 25.960185 11.277334 36.621623 8.014236 -5.175686 5.901851 18.710057 0.346216 2.032535 -0.800674 -0.432110 0.567540 0.369530 -0.222330 
1.381470 18.201770 -0.356940 -3.933826 -26.640284 -8.254163 -15.614819 11.761181 2.020513 1.318588 1.257776 -0.350388 -10.804826 6.204110 5.446533 -0.469203 4.632686 3.027625 0.005110 -0.130240 -0.095430 18.646507 -5.868310 8.100484 -1.388889 36.152342 -67.604975 1.228926 -17.377152 98.169404 -3.096138 -15.298447 -0.176121 0.003530 0.248250 -0.126390 -3.936187 -3.995295 -9.772498 16.996921 -3.116788 42.870482 -1.253128 3.051248 1.167017 0.112185 -10.252314 -13.488097 -28.552388 12.562673 43.569129 -5.037750 4.247060 -13.713350 -22.593432 -17.234070 2.137166 -9.160215 -3.507661 -9.523476 1.353871 -74.127852 -2.658754 -3.522064 2.771879 0.719520 -0.042580 -0.047790 0.016720 23.021384 25.476884 11.104761 38.142196 7.605355 -5.416200 6.009143 18.888292 0.271664 2.023529 -0.804262 -0.454740 0.577170 0.384550 -0.232610 
1.393690 18.192750 -0.347880 -3.604371 -26.885174 -8.173825 -15.599123 11.718175 2.005275 0.893135 1.160751 -0.856592 -10.878782 6.265492 6.033195 -0.512138 4.620012 3.027071 -0.004280 -0.145870 -0.101260 18.667128 -5.890140 8.136137 -0.704801 35.976905 -67.652649 -0.037958 -16.082808 98.371168 -3.044029 -15.143080 -0.150830 0.007730 0.259490 -0.128220 -4.008840 -3.887159 -9.761865 17.235298 -3.228801 42.104135 -1.629970 3.061915 1.231246 0.079323 -10.131762 -13.390953 -28.629915 12.965413 44.055031 -5.183900 4.526670 -13.185260 -22.931093 -17.254419 2.007243 -10.294634 -4.558849 -9.441798 -0.187911 -71.762159 -1.497264 -3.542575 2.756190 0.727810 -0.032110 -0.059350 0.010840 23.339410 25.202202 11.040011 39.435147 7.093417 -5.727691 5.747722 18.901395 0.162000 2.008389 -0.806026 -0.474010 0.584980 0.400750 -0.242790 
1.397650 18.182740 -0.342500 -3.305860 -27.054244 -8.093758 -15.591465 11.706229 1.980351 0.700405 0.992666 -1.671175 -11.109984 6.430534 7.013267 -0.522300 4.613694 3.019780 0.012300 -0.134910 -0.081680 18.675721 -5.899409 8.166021 0.021500 35.809469 -67.696268 -1.051481 -14.967941 98.424460 -3.004196 -15.004884 -0.130024 0.015300 0.251390 -0.115980 -4.039740 -3.856210 -9.751294 17.185428 -3.269897 41.504184 -1.674092 3.064993 1.081206 -0.026785 -10.098259 -13.129915 -28.831003 13.169529 44.232359 -5.479070 4.651560 -12.704880 -23.618121 -16.995398 1.721980 -11.418680 -5.754533 -9.229808 -2.147123 -69.054419 -0.113256 -3.558257 2.770865 0.717030 -0.026870 -0.058220 0.010200 24.152606 24.726273 10.866152 40.325976 6.630266 -5.902174 5.297464 18.485124 0.033794 2.014434 -0.827738 -0.462220 0.568530 0.390830 -0.245590 
